# xmcd CD database file
#
# Track frame offsets:
#	150
#	17361
#	39623
#	57839
#	77920
#	105225
#	123558
#	141201
#	161766
#	181891
#	200084
#	217299
#
# Disc length: 3166 seconds
#
# Revision: 0
# Processed by: cddbd v1.5.2PL0 Copyright (c) Steve Scherf et al.
# Submitted via: CDex 1.81
#
DISCID=a90c5c0c
DTITLE=Doc Jazz - Front Door Key
DYEAR=1989
DGENRE=Jazz
TTITLE0=Positive Effect
TTITLE1=Running out of time
TTITLE2=Tha wall must fall
TTITLE3=Home
TTITLE4=Castles in the sky
TTITLE5=My love
TTITLE6=Intifadah
TTITLE7=If we pretend
TTITLE8=For life
TTITLE9=Power of illusion
TTITLE10=Make a change
TTITLE11=Time out
EXTD=YEAR: 1989
EXTT0=
EXTT1=
EXTT2=
EXTT3=
EXTT4=
EXTT5=
EXTT6=
EXTT7=
EXTT8=
EXTT9=
EXTT10=
EXTT11=
PLAYORDER=
